<?xml version="1.0" encoding="UTF-8" standalone="no"?>
<svg
   xmlns:dc="http://purl.org/dc/elements/1.1/"
   xmlns:cc="http://creativecommons.org/ns#"
   xmlns:rdf="http://www.w3.org/1999/02/22-rdf-syntax-ns#"
   xmlns:svg="http://www.w3.org/2000/svg"
   xmlns="http://www.w3.org/2000/svg"
   xmlns:sodipodi="http://sodipodi.sourceforge.net/DTD/sodipodi-0.dtd"
   xmlns:inkscape="http://www.inkscape.org/namespaces/inkscape"
   width="100"
   height="100.00004"
   viewBox="-120 -80 26.666667 26.666677"
   id="svg2"
   version="1.1"
   inkscape:version="0.92.4 (unknown)"
   sodipodi:docname="k.svg">
  <metadata
     id="metadata38">
    <rdf:RDF>
      <cc:Work
         rdf:about="">
        <dc:format>image/svg+xml</dc:format>
        <dc:type
           rdf:resource="http://purl.org/dc/dcmitype/StillImage" />
        <dc:title></dc:title>
      </cc:Work>
    </rdf:RDF>
  </metadata>
  <sodipodi:namedview
     pagecolor="#ffffff"
     bordercolor="#666666"
     borderopacity="1"
     objecttolerance="10"
     gridtolerance="10"
     guidetolerance="10"
     inkscape:pageopacity="0"
     inkscape:pageshadow="2"
     inkscape:window-width="1366"
     inkscape:window-height="716"
     id="namedview36"
     showgrid="false"
     fit-margin-top="0"
     fit-margin-left="0"
     fit-margin-right="0"
     fit-margin-bottom="0"
     inkscape:zoom="0.25298709"
     inkscape:cx="1389.5783"
     inkscape:cy="-792.07484"
     inkscape:window-x="0"
     inkscape:window-y="0"
     inkscape:window-maximized="1"
     inkscape:current-layer="g1347" />
  <defs
     id="defs4">
    <path
       id="spearshape"
       d="M -1,55.425626 H 1 V -38 c 2,-2 2,-5 2,-8 C 3,-48 3,-56 0,-64.66323 -3,-56 -3,-48 -3,-46 c 0,3 0,6 2,8 z"
       stroke-miterlimit="10"
       transform="rotate(30)"
       inkscape:connector-curvature="0"
       style="stroke-miterlimit:10" />
    <!-- 32*sqrt(3), -112/sqrt(3)-->
    <filter
       style="color-interpolation-filters:sRGB"
       inkscape:label="Invert"
       id="filter1036">
      <feColorMatrix
         type="hueRotate"
         values="180"
         result="color1"
         id="feColorMatrix1032" />
      <feColorMatrix
         values="0 1 0 0 0 1 0 0 0 0 0 0 1 0 0 0.21 0.72 0.07 1 0 "
         result="color2"
         id="feColorMatrix1034" />
    </filter>
    <filter
       style="color-interpolation-filters:sRGB"
       inkscape:label="Invert"
       id="filter1052">
      <feColorMatrix
         values="0 -1 0 0 1 -1 0 0 0 1 0 0 -1 0 1 0.21 0.72 0.07 1 0 "
         result="color2"
         id="feColorMatrix1050" />
    </filter>
  </defs>
  <g
     id="g1347"
     transform="translate(-455.53764,-1775.108)">
    <g
       id="g1369"
       transform="matrix(0.15133306,0,0,0.15133306,313.63518,1461.89)"
       inkscape:export-xdpi="245.75999"
       inkscape:export-ydpi="245.75999">
      <path
         style="fill:#3e1371;fill-opacity:1;stroke:none;stroke-width:6.3233881;stroke-miterlimit:10"
         d="m 1126.5547,6079.0918 c 10.9618,56.9269 36.2567,100.7368 42.5801,111.6894 9.485,16.4285 18.9683,32.8574 36.2441,37.4864 l 29.8438,51.6914 h 14.6054 l -33.4961,-58.0156 c 4.6291,-17.2759 -4.8567,-33.7041 -14.3418,-50.1329 -6.3233,-10.9522 -31.6164,-54.762 -75.4355,-92.7187 z m 385.1601,0 c -43.8191,37.9567 -69.1121,81.7665 -75.4355,92.7187 -9.4851,16.4288 -18.9708,32.857 -14.3418,50.1329 l -33.4961,58.0156 h 14.6055 l 29.8437,-51.6914 c 17.2758,-4.629 26.7611,-21.0579 36.2461,-37.4864 6.3234,-10.9526 31.6163,-54.7625 42.5781,-111.6894 z m -302.6718,511.5977 -82.4883,142.873 10.9531,6.3223 86.1387,-149.1953 z m 205.582,0 86.1387,149.1953 10.9511,-6.3223 -82.4863,-142.873 z"
         transform="matrix(0.26666667,0,0,0.26666667,-120,-80)"
         id="path1357"
         inkscape:connector-curvature="0" />
      <g
         transform="translate(-455.49812,529.39222)"
         id="g1363">
        <path
           inkscape:connector-curvature="0"
           id="path1359"
           d="m 602.68164,1068.8281 v 2.4531 65.3008 h 12.54492 v -20.6269 c 0.26552,0.034 0.65242,0.086 0.56055,0.043 l 0.0625,0.031 0.0664,0.025 c -0.22891,-0.091 -0.0731,-0.074 0.19336,0.2988 l 0.0391,0.057 14.22851,17.7304 c 0.53737,0.6909 1.15544,1.296 1.91211,1.75 l 0.0801,0.049 0.0859,0.041 c 0.85733,0.4287 1.7941,0.6015 2.7168,0.6015 h 11.90039 l -20.04688,-25.3105 0.13477,0.1875 c -0.29824,-0.4589 -0.65493,-0.8475 -1,-1.25 0.25075,-0.2665 0.50925,-0.51 0.75195,-0.8047 l -0.10547,0.1211 19.79688,-21.0723 h -12.58204 c -1.03816,0 -2.11811,0.2065 -3.06836,0.8399 -0.615,0.4099 -1.17746,0.9057 -1.70898,1.4726 h -0.002 l -13.65625,14.6367 c -0.24227,0.2543 -0.31937,0.2949 -0.35938,0.3262 v -36.9024 z m 51.55664,0.5957 c -1.0538,0 -2.10384,0.2115 -3.06836,0.6309 l -0.0176,0.01 -0.0195,0.01 c -0.90192,0.4099 -1.72169,0.9893 -2.42578,1.6934 -0.71625,0.7162 -1.27497,1.5824 -1.66992,2.5234 -0.41456,0.9599 -0.62695,2.0049 -0.62695,3.0527 0,1.0538 0.2115,2.1039 0.63086,3.0684 l 0.008,0.018 0.008,0.02 c 0.39693,0.8732 0.94042,1.675 1.60156,2.375 l 0.0488,0.051 0.0508,0.049 c 0.6996,0.6608 1.50128,1.2045 2.375,1.6016 l 0.0195,0.01 0.0176,0.01 c 0.96452,0.4194 2.01456,0.6289 3.06836,0.6289 1.05381,0 2.10535,-0.2093 3.07031,-0.6289 0.91834,-0.3993 1.75882,-0.9639 2.46289,-1.668 0.69856,-0.6986 1.27061,-1.512 1.67969,-2.4043 0.46184,-0.9736 0.70313,-2.049 0.70313,-3.127 0,-1.0646 -0.2447,-2.1257 -0.69532,-3.0898 -0.39697,-0.9302 -0.97328,-1.7796 -1.69921,-2.4785 -0.69649,-0.7229 -1.52817,-1.3156 -2.45118,-1.7168 -0.96496,-0.4197 -2.0165,-0.6309 -3.07031,-0.6309 z m 111.83399,0 c -1.05382,0 -2.10386,0.2115 -3.06836,0.6309 l -0.0195,0.01 -0.0176,0.01 c -0.90193,0.4099 -1.72169,0.9893 -2.42578,1.6934 -0.7173,0.7172 -1.27685,1.5847 -1.67188,2.5273 -0.41354,0.9589 -0.625,2.0023 -0.625,3.0488 0,1.0538 0.20955,2.1039 0.62891,3.0684 l 0.008,0.018 0.01,0.02 c 0.39693,0.8733 0.9404,1.6749 1.60157,2.375 l 0.0469,0.051 0.0527,0.049 c 0.69959,0.6608 1.50128,1.2045 2.375,1.6016 l 0.0176,0.01 0.0195,0.01 c 0.9645,0.4194 2.01454,0.6289 3.06836,0.6289 1.05381,0 2.10535,-0.2093 3.07031,-0.6289 0.91833,-0.3993 1.75881,-0.9639 2.46289,-1.668 0.69727,-0.6973 1.26685,-1.5101 1.67578,-2.4004 0.46305,-0.9746 0.70508,-2.0515 0.70508,-3.1309 0,-1.0658 -0.24363,-2.1287 -0.69531,-3.0937 -0.39692,-0.9286 -0.97238,-1.7766 -1.69727,-2.4746 -0.69648,-0.7229 -1.52816,-1.3156 -2.45117,-1.7168 -0.96496,-0.4196 -2.0165,-0.6309 -3.07031,-0.6309 z m -158.48438,4.3106 h 2.73047 v 36.9902 h 4.41797 c 0.77245,0 1.52309,-0.081 2.28711,-0.375 l 0.0762,-0.029 0.0723,-0.033 c 0.82176,-0.3793 1.41207,-0.9067 1.99609,-1.5273 h 0.004 l 13.65234,-14.6348 h 0.002 0.002 c 0.31995,-0.3406 0.60854,-0.5841 0.84571,-0.7422 -0.0969,0.065 -0.0364,-0.016 0.34765,-0.016 h 1.24024 l -12.08594,12.8652 -0.0508,0.061 c -0.33817,0.4106 -0.66459,0.7587 -0.9707,1.0429 l -0.0332,0.031 -0.0332,0.031 c -0.21336,0.2135 -0.46958,0.4136 -0.78906,0.6016 l -3.37305,1.9844 3.25586,2.1718 c 0.33751,0.225 0.62583,0.4781 0.88086,0.7696 l 0.0547,0.061 0.0566,0.059 c 0.29152,0.2915 0.58526,0.6529 0.87305,1.0957 l 0.0625,0.096 13.81835,17.4473 h -1.75585 c -0.27368,0 -0.36444,-0.04 -0.43555,-0.068 -0.10871,-0.076 -0.26294,-0.1913 -0.48633,-0.4785 l -0.0117,-0.016 -14.21875,-17.7207 0.082,0.1094 c -0.5709,-0.7994 -1.25838,-1.5195 -2.29101,-1.9571 -0.97647,-0.4433 -1.8805,-0.5195 -2.9043,-0.5195 h -4.58789 v 20.6504 h -2.73047 z m 46.65039,0.5976 c 0.42529,0 0.76983,0.073 1.11328,0.2227 0.36251,0.1576 0.63968,0.3528 0.90039,0.6289 l 0.0488,0.051 0.0508,0.049 c 0.25833,0.244 0.45289,0.5186 0.61524,0.9082 l 0.0234,0.059 0.0273,0.057 c 0.15758,0.3295 0.23047,0.6395 0.23047,1.0332 0,0.3936 -0.0729,0.7018 -0.23047,1.0313 l -0.01,0.021 -0.01,0.022 c -0.15918,0.3502 -0.37789,0.6689 -0.69727,0.9882 -0.26302,0.2631 -0.55913,0.4672 -0.94922,0.6368 -0.34345,0.1493 -0.68799,0.2226 -1.11328,0.2226 -0.4178,0 -0.75388,-0.074 -1.0918,-0.2187 -0.34752,-0.1602 -0.65624,-0.3745 -0.95703,-0.6485 -0.27613,-0.3022 -0.49285,-0.6127 -0.65429,-0.9629 -0.1443,-0.3379 -0.21875,-0.674 -0.21875,-1.0918 0,-0.4253 0.0731,-0.7693 0.22265,-1.1132 l 0.008,-0.018 0.008,-0.018 c 0.17356,-0.4165 0.37722,-0.7112 0.62304,-0.957 0.3136,-0.3136 0.62535,-0.5256 0.9668,-0.6836 0.33849,-0.1448 0.67523,-0.2188 1.09375,-0.2188 z m 111.83399,0 c 0.42528,0 0.76979,0.073 1.11328,0.2227 0.36251,0.1576 0.63968,0.3528 0.90039,0.6289 l 0.0488,0.051 0.0508,0.049 c 0.25831,0.2439 0.45286,0.5186 0.61523,0.9082 l 0.0234,0.059 0.0273,0.057 c 0.15758,0.3295 0.22852,0.6395 0.22852,1.0332 0,0.3936 -0.0709,0.7018 -0.22852,1.0313 l -0.01,0.021 -0.01,0.022 c -0.1592,0.3502 -0.3779,0.6689 -0.69726,0.9882 -0.26303,0.2631 -0.55914,0.4672 -0.94922,0.6368 -0.34349,0.1493 -0.688,0.2226 -1.11328,0.2226 -0.41854,0 -0.75525,-0.074 -1.09375,-0.2187 -0.34879,-0.1608 -0.65718,-0.375 -0.95899,-0.6504 -0.27514,-0.3015 -0.48935,-0.6116 -0.65039,-0.961 -0.1443,-0.3379 -0.21875,-0.674 -0.21875,-1.0918 0,-0.4253 0.0731,-0.7693 0.22266,-1.1132 l 0.008,-0.018 0.008,-0.018 c 0.17355,-0.4165 0.37527,-0.7112 0.6211,-0.957 0.31287,-0.3129 0.62431,-0.5237 0.96484,-0.6817 0.33978,-0.1459 0.67754,-0.2207 1.09766,-0.2207 z m -34.69922,13.4395 c -3.42991,0 -6.62172,0.5744 -9.50977,1.7617 h -0.004 -0.004 c -2.83419,1.1782 -5.31114,2.8842 -7.34375,5.0781 -2.03764,2.1994 -3.58985,4.8596 -4.6543,7.8965 -1.07184,3.0294 -1.58984,6.3689 -1.58984,9.9844 0,3.6449 0.51723,7.0012 1.5918,10.0351 1.06552,3.0086 2.61879,5.6508 4.65234,7.8458 2.03265,2.194 4.50961,3.8999 7.34375,5.0781 l 0.0156,0.01 0.0156,0.01 c 2.88297,1.1532 6.06382,1.7129 9.48633,1.7129 3.42251,0 6.59295,-0.5579 9.45312,-1.7149 h 0.006 0.006 c 2.85951,-1.1755 5.34333,-2.8816 7.35352,-5.082 l 0.004,-0.01 c 2.03503,-2.1981 3.57334,-4.8464 4.60938,-7.8594 2.5e-4,-7e-4 0.002,0 0.002,0 1.06963,-3.0286 1.58399,-6.377 1.58398,-10.0137 0,-3.6119 -0.51629,-6.9477 -1.58593,-9.9746 -1.03346,-3.0327 -2.56892,-5.6924 -4.60157,-7.8906 -2.01147,-2.2062 -4.49731,-3.9177 -7.36132,-5.0957 -2.86381,-1.1896 -6.04108,-1.7637 -9.46875,-1.7637 z m -83.42774,0.6816 v 2.4531 45.6758 h 12.50196 v -48.1289 z m 14.32422,0 1.37695,3.3809 18.24414,44.748 h 10.16797 l 19.6211,-48.1289 h -9.58008 c -1.01354,0 -2.10962,0.3288 -2.95313,0.9864 -0.72344,0.5589 -1.2907,1.3444 -1.60546,2.1835 l -10.43555,26.17 -10.33203,-26.2129 -0.002,-0.01 c -0.33793,-0.8447 -0.92408,-1.5841 -1.61523,-2.1269 -0.86676,-0.6811 -1.98419,-0.9942 -3.00977,-0.9942 z m 97.50977,0 v 2.4531 45.6758 h 12.50195 v -48.1289 z m -28.40625,4.2246 c 2.88476,0 5.39396,0.477 7.59179,1.3907 h 0.004 0.004 c 2.25425,0.9267 4.09081,2.202 5.60546,3.8632 l 0.006,0.01 0.008,0.01 c 1.54195,1.6643 2.73067,3.6882 3.57226,6.1621 l 0.006,0.014 0.006,0.016 c 0.86061,2.4299 1.3086,5.2022 1.3086,8.3535 0,3.1817 -0.44892,5.9692 -1.3086,8.3965 l -0.004,0.012 -0.004,0.01 c -0.84047,2.445 -2.03013,4.4601 -3.57617,6.1289 l -0.008,0.01 -0.006,0.01 c -1.51461,1.6613 -3.35116,2.9366 -5.60546,3.8633 -2.1999,0.8877 -4.71302,1.3516 -7.59961,1.3516 -2.88591,0 -5.41496,-0.4645 -7.64844,-1.3555 -2.22228,-0.9261 -4.06543,-2.2023 -5.61328,-3.873 -1.55046,-1.6735 -2.75824,-3.6976 -3.62695,-6.1504 -0.85968,-2.4273 -1.3086,-5.2148 -1.3086,-8.3965 0,-3.1513 0.44799,-5.9236 1.3086,-8.3535 h 0.002 0.002 c 0.86979,-2.4816 2.07669,-4.5146 3.62305,-6.1836 1.54983,-1.6728 3.39512,-2.9525 5.62109,-3.8789 2.23154,-0.9171 4.7566,-1.3946 7.64063,-1.3946 z m -59.24805,0.627 c 0.10309,0.081 0.0873,0.082 0.0898,0.09 6e-5,2e-4 0.002,0 0.002,0 l 10.96093,27.8066 c 0.35338,0.9101 0.62751,1.8111 0.82618,2.7051 0.22394,1.0078 0.43335,2.0008 0.6289,2.9785 l 4.79688,0.064 c 0.22365,-0.9785 0.46264,-1.9717 0.71484,-2.9805 0.2301,-0.9204 0.52427,-1.8454 0.88672,-2.7773 l 11.0957,-27.8223 0.004,-0.012 h 2.25 l -15.62109,38.3164 h -3.57227 l -15.62109,-38.3164 h 2.58007 c 0.16911,0 0.0489,6e-4 -0.0215,-0.055 z m -19.27148,0.055 h 2.6875 v 38.3164 h -2.6875 z m 111.83203,0 h 2.6875 v 38.3164 h -2.6875 z m -33.3125,0.3847 c -2.44155,0 -4.68852,0.4198 -6.66602,1.3379 -1.93472,0.8982 -3.60638,2.2331 -4.91601,3.9219 l -0.01,0.012 -0.01,0.014 c -1.27888,1.6935 -2.19701,3.7183 -2.80273,6.0137 l -0.004,0.012 -0.002,0.012 c -0.57263,2.2588 -0.84375,4.749 -0.84375,7.4727 0,2.7237 0.27109,5.2137 0.84375,7.4726 l 0.004,0.016 0.004,0.016 c 0.60688,2.2677 1.52682,4.2757 2.80078,5.9629 l 0.0176,0.023 0.0176,0.022 c 1.31102,1.656 2.97663,2.9662 4.90039,3.8594 1.9775,0.9181 4.22447,1.3378 6.66602,1.3378 4.81184,0 8.95292,-1.7782 11.52929,-5.2597 l 0.004,-0.01 h 0.004 c 2.51558,-3.4334 3.63086,-7.9833 3.63086,-13.4394 0,-5.4829 -1.11309,-10.046 -3.63086,-13.4825 -2.57194,-3.5103 -6.71979,-5.3125 -11.53711,-5.3125 z m 0,4.9063 c 3.71601,0 5.9403,1.0712 7.57812,3.3066 1.69199,2.3094 2.6836,5.7679 2.6836,10.5821 0,4.7825 -0.98831,8.2247 -2.68165,10.5371 -4.5e-4,6e-4 -10e-4,0 -0.002,0 -1.63269,2.2002 -3.8625,3.2637 -7.57812,3.2637 -1.88198,0 -3.39129,-0.3198 -4.59961,-0.8809 -1.25405,-0.5822 -2.25226,-1.3751 -3.09961,-2.4394 -0.82078,-1.094 -1.48649,-2.4842 -1.95703,-4.2363 -0.44837,-1.7764 -0.69141,-3.858 -0.69141,-6.2461 0,-2.3911 0.24195,-4.4761 0.69141,-6.2539 0.47369,-1.7901 1.14377,-3.197 1.96484,-4.2872 0.84961,-1.0911 1.84642,-1.8886 3.0918,-2.4668 1.20832,-0.561 2.71763,-0.8808 4.59961,-0.8808 z m -105.72852,10.916 0.11133,0.1191 c -0.0155,-0.018 -0.0371,-0.029 -0.0527,-0.047 -0.0214,-0.022 -0.037,-0.051 -0.0586,-0.072 z m -0.0859,1.293 -0.0664,0.064 c 0.0153,-0.014 0.0296,-0.033 0.0449,-0.047 0.007,-0.01 0.0149,-0.011 0.0215,-0.018 z"
           style="color:#000000;font-style:normal;font-variant:normal;font-weight:normal;font-stretch:normal;font-size:85.33333588px;line-height:1.25;font-family:Lato;-inkscape-font-specification:Lato;font-variant-ligatures:normal;font-variant-position:normal;font-variant-caps:normal;font-variant-numeric:normal;font-variant-alternates:normal;font-feature-settings:normal;text-indent:0;text-align:start;text-decoration:none;text-decoration-line:none;text-decoration-style:solid;text-decoration-color:#000000;letter-spacing:0px;word-spacing:0px;text-transform:none;writing-mode:lr-tb;direction:ltr;text-orientation:mixed;dominant-baseline:auto;baseline-shift:baseline;text-anchor:start;white-space:normal;shape-padding:0;clip-rule:nonzero;display:inline;overflow:visible;visibility:visible;opacity:1;isolation:auto;mix-blend-mode:normal;color-interpolation:sRGB;color-interpolation-filters:linearRGB;solid-color:#000000;solid-opacity:1;vector-effect:none;fill:#ffffff;fill-opacity:1;fill-rule:nonzero;stroke:#cca1ff;stroke-width:4.90666676;stroke-linecap:butt;stroke-linejoin:miter;stroke-miterlimit:4;stroke-dasharray:none;stroke-dashoffset:0;stroke-opacity:1;paint-order:markers stroke fill;color-rendering:auto;image-rendering:auto;shape-rendering:auto;text-rendering:auto;enable-background:accumulate" />
        <path
           style="font-style:normal;font-variant:normal;font-weight:normal;font-stretch:normal;font-size:85.33333588px;line-height:1.25;font-family:Lato;-inkscape-font-specification:Lato;letter-spacing:0px;word-spacing:0px;fill:#3e1371;fill-opacity:1;stroke:none;stroke-width:4.90666676;stroke-miterlimit:4;stroke-dasharray:none;stroke-opacity:1;paint-order:markers stroke fill"
           d="m 605.13543,1071.2805 v 62.8479 h 7.63699 v -20.6506 h 2.13333 c 0.85333,0 1.49365,0.099 1.92032,0.2985 0.42667,0.1706 0.85301,0.5547 1.27968,1.1521 l 14.20832,17.7067 c 0.39824,0.512 0.81085,0.8961 1.23752,1.1521 0.45509,0.2276 0.99504,0.3412 1.62083,0.3412 h 6.82709 l -16.89637,-21.3334 c -0.36976,-0.5689 -0.7676,-1.0665 -1.19427,-1.4932 -0.39821,-0.4551 -0.85363,-0.8535 -1.36563,-1.1948 0.48358,-0.2845 0.91043,-0.6114 1.28022,-0.9813 0.39821,-0.3697 0.79656,-0.7965 1.1948,-1.2801 l 15.91458,-16.9386 h -6.912 c -0.71109,0 -1.2801,0.1422 -1.70677,0.4266 -0.42667,0.2844 -0.85352,0.6542 -1.28019,1.1093 l -13.65314,14.6349 c -0.4551,0.4836 -0.86771,0.8106 -1.2375,0.9813 -0.36976,0.1422 -0.8389,0.213 -1.40781,0.213 h -1.96301 v -36.9916 z m 49.10365,0.5974 c -0.73954,0 -1.4364,0.1421 -2.09064,0.4266 -0.62576,0.2844 -1.19424,0.6828 -1.70624,1.1948 -0.48354,0.4835 -0.86762,1.0663 -1.15208,1.7489 -0.28445,0.6542 -0.42656,1.3511 -0.42656,2.0907 0,0.7395 0.14211,1.4364 0.42656,2.0906 0.28446,0.6258 0.66854,1.1947 1.15208,1.7067 0.512,0.4836 1.08048,0.8677 1.70624,1.1521 0.65424,0.2845 1.3511,0.4266 2.09064,0.4266 0.73955,0 1.43694,-0.1421 2.09115,-0.4266 0.65421,-0.2844 1.22269,-0.6685 1.70624,-1.1521 0.512,-0.512 0.91035,-1.0809 1.1948,-1.7067 0.31288,-0.6542 0.46928,-1.3511 0.46928,-2.0906 0,-0.7396 -0.1564,-1.4365 -0.46928,-2.0907 -0.28445,-0.6826 -0.6828,-1.2654 -1.1948,-1.7489 -0.48355,-0.512 -1.05203,-0.9104 -1.70624,-1.1948 -0.65421,-0.2845 -1.3516,-0.4266 -2.09115,-0.4266 z m 111.83334,0 c -0.73955,0 -1.4364,0.1421 -2.09064,0.4266 -0.62576,0.2844 -1.19424,0.6828 -1.70624,1.1948 -0.48355,0.4835 -0.86763,1.0663 -1.15208,1.7489 -0.28445,0.6542 -0.42656,1.3511 -0.42656,2.0907 0,0.7395 0.14211,1.4364 0.42656,2.0906 0.28445,0.6258 0.66853,1.1947 1.15208,1.7067 0.512,0.4836 1.08048,0.8677 1.70624,1.1521 0.65424,0.2845 1.35109,0.4266 2.09064,0.4266 0.73955,0 1.43693,-0.1421 2.09115,-0.4266 0.65421,-0.2844 1.22269,-0.6685 1.70624,-1.1521 0.512,-0.512 0.91034,-1.0809 1.1948,-1.7067 0.31288,-0.6542 0.46928,-1.3511 0.46928,-2.0906 0,-0.7396 -0.1564,-1.4365 -0.46928,-2.0907 -0.28446,-0.6826 -0.6828,-1.2654 -1.1948,-1.7489 -0.48355,-0.512 -1.05203,-0.9104 -1.70624,-1.1948 -0.65422,-0.2845 -1.3516,-0.4266 -2.09115,-0.4266 z m -34.6995,18.3463 c -3.15733,0 -6.01602,0.5262 -8.57602,1.5786 -2.53158,1.0524 -4.69342,2.546 -6.48542,4.4802 -1.792,1.9342 -3.17194,4.281 -4.13906,7.0402 -0.96712,2.7306 -1.45054,5.788 -1.45054,9.1729 0,3.4133 0.48342,6.4855 1.45054,9.2161 0.96712,2.7307 2.34706,5.0632 4.13906,6.9974 1.792,1.9343 3.95384,3.4278 6.48542,4.4802 2.56,1.024 5.41869,1.5359 8.57602,1.5359 3.15734,0 6.00128,-0.5119 8.53283,-1.5359 2.56,-1.0524 4.72187,-2.5459 6.48542,-4.4802 1.792,-1.9342 3.15768,-4.2667 4.09634,-6.9974 0.96712,-2.7306 1.45054,-5.8028 1.45054,-9.2161 0,-3.3849 -0.48342,-6.4423 -1.45054,-9.1729 -0.93866,-2.7592 -2.30434,-5.106 -4.09634,-7.0402 -1.76355,-1.9342 -3.92542,-3.4278 -6.48542,-4.4802 -2.53155,-1.0524 -5.37549,-1.5786 -8.53283,-1.5786 z m -80.97341,0.6828 v 43.2214 h 7.59427 v -43.2214 z m 15.51875,0 17.62082,43.2214 h 6.86979 l 17.62136,-43.2214 h -5.93072 c -0.56891,0 -1.05283,0.1564 -1.45107,0.4693 -0.36976,0.2844 -0.63973,0.6543 -0.8104,1.1093 l -11.09322,27.8188 c -0.39824,1.024 -0.72526,2.0479 -0.98126,3.0719 -0.256,1.024 -0.49797,2.0336 -0.72552,3.0291 -0.19912,-0.9955 -0.41256,-2.0051 -0.6401,-3.0291 -0.22755,-1.024 -0.54032,-2.0479 -0.93854,-3.0719 l -10.96562,-27.8188 c -0.17067,-0.4266 -0.45491,-0.7965 -0.85315,-1.1093 -0.39821,-0.3129 -0.89589,-0.4693 -1.49323,-0.4693 z m 96.31459,0 v 43.2214 h 7.59426 v -43.2214 z m -30.85993,5.2906 c 4.26667,0 7.45243,1.4365 9.55731,4.3094 2.10488,2.8729 3.15728,6.8833 3.15728,12.0318 0,5.12 -1.0524,9.1167 -3.15728,11.9896 -2.10488,2.8444 -5.29064,4.2666 -9.55731,4.2666 -2.16176,0 -4.03938,-0.3698 -5.63229,-1.1094 -1.59288,-0.7395 -2.92952,-1.7919 -4.0104,-3.1572 -1.05245,-1.3938 -1.84915,-3.1003 -2.3896,-5.1198 -0.512,-2.0196 -0.76821,-4.3098 -0.76821,-6.8698 0,-2.56 0.25621,-4.8497 0.76821,-6.8693 0.54045,-2.048 1.33715,-3.7688 2.3896,-5.1625 1.08088,-1.3938 2.41752,-2.4605 4.0104,-3.2 1.59291,-0.7396 3.47053,-1.1094 5.63229,-1.1094 z"
           id="path1361"
           inkscape:connector-curvature="0" />
      </g>
      <path
         style="fill:#3e1371;fill-opacity:1;stroke:none;stroke-width:1.68623686;stroke-miterlimit:10"
         d="m 231.76911,1541.0908 c -5.05866,14.6082 -5.05856,28.0981 -5.05859,31.4705 3e-5,5.0588 -1.8e-4,10.1175 3.37228,13.4899 l -1.7e-4,17.8643 h 3.37301 l -9e-5,-17.8642 c 3.37247,-3.3725 3.37248,-8.4312 3.37248,-13.4899 -1e-5,-3.3725 -1.6e-4,-16.8623 -5.05892,-31.4706 z"
         id="path1365"
         inkscape:connector-curvature="0"
         sodipodi:nodetypes="cccccccc" />
      <path
         style="fill:#3e1371;fill-opacity:1;stroke:none;stroke-width:1.68623686;stroke-miterlimit:10"
         d="m 230.08306,1673.309 -1.1e-4,43.9936 3.37247,-4e-4 1.8e-4,-43.9932 z"
         id="path1367"
         inkscape:connector-curvature="0"
         sodipodi:nodetypes="ccccc" />
    </g>
  </g>
</svg>
